<svg height="512pt" viewBox="-47 0 512 512.0002" width="512pt" xmlns="http://www.w3.org/2000/svg"><path d="m210.167969 286.066406c-22.003907 0-42.765625-9.386718-61.117188-24.515625v111.476563c8.539063 23.484375 31.957031 40.355468 59.53125 40.355468 27.589844 0 51.023438-16.886718 59.550781-40.394531h.042969v-108.9375c-17.578125 13.660157-37.242187 22.015625-58.007812 22.015625zm0 0" fill="#ffd0a4"/><path d="m233.351562 282.59375v90.394531h-.042968c-6.660156 18.359375-22.414063 32.679688-42.136719 38.074219 5.527344 1.511719 11.371094 2.320312 17.410156 2.320312 27.589844 0 51.023438-16.886718 59.550781-40.394531h.042969v-108.9375c-10.886719 8.460938-22.574219 14.878907-34.824219 18.542969zm0 0" fill="#ffd0a4"/><path d="m384.199219 419.511719c-7.984375-44.714844-48.683594-77.429688-96.332031-77.429688h-19.734376c-8.527343 23.507813-31.957031 40.398438-59.550781 40.398438-27.589843 0-51.019531-16.890625-59.546875-40.398438h-19.738281c-47.644531 0-88.34375 32.714844-96.328125 77.429688l-32.96875 92.488281h417.167969zm0 0" fill="#bde8f9"/><path d="m384.199219 419.511719c-7.984375-44.714844-48.683594-77.429688-96.332031-77.429688h-19.734376c-1.648437 4.542969-3.855468 8.832031-6.539062 12.804688 24.175781 13.527343 41.878906 36.742187 46.855469 64.625l32.96875 92.488281h75.75zm0 0" fill="#8ed7f5"/><path d="m229.234375 452.09375h-41.304687v-55.738281c0-7.664063 6.210937-13.878907 13.878906-13.878907h13.546875c7.667969 0 13.878906 6.214844 13.878906 13.878907zm0 0" fill="#ff8087"/><path d="m215.359375 382.480469h-13.550781c-.539063 0-1.070313.035156-1.59375.097656 6.914062.789063 12.285156 6.652344 12.285156 13.777344v55.738281h16.734375v-55.738281c0-7.664063-6.210937-13.875-13.875-13.875zm0 0" fill="#fd6470"/><path d="m187.90625 423.957031-22.953125 88.042969h87.257813l-23-88.042969zm0 0" fill="#ff8087"/><path d="m229.210938 423.957031h-16.628907l23 88.042969h16.628907zm0 0" fill="#fd6470"/><path d="m90.859375 208.582031c-4.878906-5.886719-12.894531-21.460937-16.652344-76.472656-3.871093-56.640625 18.789063-81.972656 50.03125-102.574219 31.242188-20.601562 86.847657-41.261718 117.113281-21.640625 30.269532 19.621094 90.191407 3.382813 101.1875 102.574219 2.851563 25.742188-1.304687 70.96875-14.769531 102.261719zm0 0" fill="#8a7e88"/><path d="m125.507812 128.253906c-4.585937-.652344-9.367187-1.515625-14.378906-2.625-15.464844-3.433594-27.601562-1.933594-37.136718 2.601563.0625 1.285156.125 2.566406.214843 3.882812 3.757813 55.007813 11.773438 70.582031 16.652344 76.472657zm0 0" fill="#635562"/><path d="m327.765625 212.734375c13.46875-31.296875 17.625-76.523437 14.769531-102.265625-10.992187-99.191406-70.917968-82.953125-101.183594-102.574219-15.398437-9.984375-37.363281-9.535156-59.335937-3.972656 2.738281 1.078125 5.339844 2.394531 7.777344 3.972656 30.265625 19.621094 90.191406 3.382813 101.1875 102.574219.09375.855469.179687 1.738281.257812 2.632812zm0 0" fill="#635562"/><path d="m300.351562 114.835938c-37.097656-10.789063-62.484374 27.472656-137.664062 10.792968-74.800781-16.59375-71.859375 81.949219-71.828125 82.933594 22.699219 56.695312 67.609375 108.410156 119.308594 108.410156 50.417969 0 94.378906-49.183594 117.582031-104.210937-1.375 2.566406 9.523438-87.183594-27.398438-97.925781zm0 0" fill="#ffe5c2"/><path d="m300.351562 114.835938c-15.25-4.433594-28.519531-.582032-44.082031 4.335937 13.679688 10.707031 18.015625 35.515625 19.15625 56.910156 1.382813 26.046875-5.523437 51.835938-19.640625 73.765625-18.894531 29.363282-43.820312 53.199219-71.855468 62.691406 8.488281 2.871094 17.257812 4.433594 26.238281 4.433594 50.417969 0 94.378906-49.183594 117.582031-104.210937-1.375 2.566406 9.523438-87.183594-27.398438-97.925781zm0 0" fill="#ffd0a4"/></svg>