<svg height="512pt" viewBox="0 -73 512 511" width="512pt" xmlns="http://www.w3.org/2000/svg"><path d="m112.488281 41.117188v48.527343h-45.4375c-8.121093-8.121093-12.671875-12.671875-20.792969-20.792969v-27.734374c0-18.289063 14.824219-33.113282 33.113282-33.113282 18.289062-.003906 33.117187 14.824219 33.117187 33.113282zm0 0" fill="#f5d9ab"/><path d="m399.523438 41.117188v48.527343h45.433593c8.121094-8.121093 12.675781-12.671875 20.796875-20.792969v-27.734374c0-18.289063-14.828125-33.113282-33.117187-33.113282-18.289063-.003906-33.113281 14.824219-33.113281 33.113282zm0 0" fill="#f5d9ab"/><path d="m139.953125 129.554688h232.09375v30h-232.09375zm0 0" fill="#e5ebf5"/><path d="m240.042969 159.554688h31.914062v198h-31.914062zm0 0" fill="#e5ebf5"/><path d="m112.488281 187.203125v-97.558594h-52.378906l-16.414063 16.417969-.21875 126.9375h82.796876v65.757812h40.816406v-111.554687zm0 0" fill="#e2fc85"/><path d="m43.476562 233v-81.464844c-5.96875-5.964844-9.3125-9.308594-15.277343-15.273437h-20.699219v132.710937h118.773438v-35.972656zm0 0" fill="#cad8ea"/><g fill="#e5ebf5"><path d="m96.273438 268.976562h30v88.578126h-30zm0 0"/><path d="m271.957031 302.136719h30v55.417969h-30zm0 0"/><path d="m210.042969 302.136719h30v55.417969h-30zm0 0"/><path d="m7.5 268.976562h30v88.578126h-30zm0 0"/><path d="m474.5 268.976562h30v88.578126h-30zm0 0"/><path d="m385.726562 268.976562h30v88.578126h-30zm0 0"/></g><path d="m399.511719 187.203125v-97.558594h52.378906l16.414063 16.417969.21875 126.9375h-82.796876v65.757812h-40.816406v-111.554687zm0 0" fill="#d15573"/><path d="m468.523438 233v-81.464844c5.96875-5.964844 9.3125-9.308594 15.277343-15.273437h20.699219v132.710937h-118.773438v-35.972656zm0 0" fill="#cad8ea"/><path d="m308.132812 88.902344h-104.269531l-13.121093 13.117187v27.535157h130.507812v-27.535157zm0 0" fill="#96d1f3"/><path d="m190.742188 159.554688h49.300781v30h-49.300781zm0 0" fill="#96d1f3"/><path d="m271.9375 159.554688h49.300781v30h-49.300781zm0 0" fill="#96d1f3"/><path d="m197 189.554688h43.042969v112.582031h-43.042969zm0 0" fill="#96d1f3"/><path d="m271.9375 189.554688h43.042969v112.582031h-43.042969zm0 0" fill="#96d1f3"/><path d="m288.816406 40.8125v27.484375c-8.046875 8.046875-12.558594 12.558594-20.605468 20.605469h-24.414063c-8.046875-8.046875-12.558594-12.558594-20.605469-20.605469v-27.484375c0-18.121094 14.691406-32.8125 32.8125-32.8125 18.125 0 32.8125 14.691406 32.8125 32.8125zm0 0" fill="#f5d9ab"/><path d="m76.257812 68.851562v-27.734374c0-12.890626 7.367188-24.050782 18.113282-29.519532-4.503906-2.292968-9.597656-3.597656-15-3.597656-18.289063 0-33.113282 14.828125-33.113282 33.117188v27.734374l20.792969 20.792969h30c-8.121093-8.121093-12.671875-12.671875-20.792969-20.792969zm0 0" fill="#ffb680"/><path d="m447.636719 11.597656c-4.503907-2.292968-9.597657-3.597656-15-3.597656-18.289063 0-33.113281 14.828125-33.113281 33.117188v48.527343h30v-48.527343c0-12.890626 7.367187-24.050782 18.113281-29.519532zm0 0" fill="#ffb680"/><path d="m169.953125 159.554688v-30h-30v30h232.09375zm0 0" fill="#cad8ea"/><path d="m126.273438 233h30v65.757812h-30zm0 0" fill="#6ad34d"/><path d="m90.109375 89.644531h-30l-16.414063 16.417969-.21875 126.9375h30l.21875-126.9375zm0 0" fill="#6ad34d"/><path d="m28.199219 136.261719h-20.699219v132.710937h30v-123.410156c-2.925781-2.925781-5.613281-5.613281-9.300781-9.300781zm0 0" fill="#b0c4e0"/><path d="m399.511719 89.644531h30v97.558594h-30zm0 0" fill="#c21d44"/><path d="m344.910156 187.203125h30v111.554687h-30zm0 0" fill="#c21d44"/><path d="m415.726562 268.976562v-35.976562h82.796876v-81.460938c2.277343-2.277343 4.171874-4.171874 5.976562-5.976562v-9.300781h-20.699219c-5.964843 5.964843-9.308593 9.308593-15.273437 15.273437v81.464844h-82.800782v35.972656h118.773438-88.773438zm0 0" fill="#b0c4e0"/><path d="m233.863281 88.902344h-30l-13.121093 13.117187v27.535157h30v-27.535157zm0 0" fill="#3ca6e6"/><path d="m190.742188 159.554688h30v30h-30zm0 0" fill="#3ca6e6"/><path d="m271.9375 159.554688h30v30h-30zm0 0" fill="#3ca6e6"/><path d="m197 189.554688h30v112.582031h-30zm0 0" fill="#3ca6e6"/><path d="m271.9375 189.554688h30v112.582031h-30zm0 0" fill="#3ca6e6"/><path d="m253.191406 68.296875v-27.480469c0-12.71875 7.238282-23.734375 17.8125-29.183594-4.496094-2.316406-9.59375-3.632812-15-3.632812-18.121094 0-32.8125 14.691406-32.8125 32.816406v27.480469l20.605469 20.605469h24.414063l2.792968-2.792969c-6.402344-6.402344-10.746094-10.746094-17.8125-17.8125zm0 0" fill="#ffb680"/><path d="m440.136719 156.261719h-15v-15h15zm0-25h-15v-15h15zm0 0" fill="#fff"/><path d="m50.976562 148.429688-19.671874-19.667969h-31.304688v236.292969h45v-88.578126h43.773438v88.578126h45v-139.554688h-82.796876zm-20.976562 201.625h-15v-73.578126h15zm88.773438 0h-15v-73.578126h15zm0-109.554688v20.976562h-103.773438v-117.714843h10.09375l10.882812 10.882812v85.855469zm0 0"/><path d="m480.695312 128.761719-19.671874 19.667969v77.070312h-82.796876v139.554688h45v-88.578126h43.773438v88.578126h45v-236.292969zm-72.46875 221.292969h-15v-73.578126h15zm88.773438 0h-15v-73.578126h15zm-103.773438-88.578126v-20.976562h82.796876v-85.855469l10.882812-10.882812h10.09375v117.714843zm0 0"/><path d="m328.738281 167.054688h50.808594v-45h-50.796875v-23.140626l-17.511719-17.511718h-24.917969l10-10v-30.589844c0-22.226562-18.085937-40.3125-40.316406-40.3125-22.226562 0-40.3125 18.085938-40.3125 40.3125v30.589844l10 10h-24.933594l-17.511718 17.511718v23.140626h-50.792969v45h50.792969v30h6.257812v112.582031h13.042969v55.417969h106.914063v-55.417969h13.023437v-112.582031h6.253906zm-15 15h-34.28125v-15h34.28125zm-83.046875-116.863282v-24.378906c0-13.957031 11.355469-25.3125 25.3125-25.3125 13.960938 0 25.3125 11.355469 25.3125 25.3125v24.378906l-16.210937 16.210938h-18.203125zm-32.449218 39.9375 8.726562-8.726562h98.058594l8.722656 8.726562v16.925782h-16.507812v-11.574219h-15v11.574219h-52.492188v-11.574219h-15v11.574219h-16.507812zm-50.789063 46.925782v-15h217.09375v15zm85.089844 15v15h-34.300781v-15zm0 30v97.582031h-28.042969v-97.582031zm0 153h-15v-40.417969h15zm15 0v-183h16.894531c0 142.289062.019531-186.433594.019531 183zm46.914062 0h-15v-40.417969h15zm13.023438-55.417969h-28.023438v-97.582031h28.023438zm0 0"/><path d="m119.988281 82.144531v-41.027343c0-22.398438-18.222656-40.617188-40.617187-40.617188-22.394532 0-40.613282 18.222656-40.613282 40.617188v30.839843l14.214844 14.21875-16.773437 16.773438-.015625 9.890625 15 .027344.003906-3.695313 12.027344-12.027344h41.769531v97.5625h54.605469v96.550781h-5.816406v15h20.816406v-126.554687h-54.605469v-97.558594zm-49.828125 0-16.402344-16.402343v-24.625c0-14.125 11.488282-25.617188 25.613282-25.617188s25.617187 11.492188 25.617187 25.617188v41.027343zm0 0"/><path d="m352.421875 194.703125h54.601563v-97.558594h41.769531l12.027343 12.027344.003907 3.691406 15-.023437-.015625-9.890625-16.773438-16.777344 14.214844-14.214844v-30.84375c0-22.394531-18.21875-40.613281-40.613281-40.613281s-40.617188 18.21875-40.617188 40.613281v138.589844h-54.597656v126.554687h20.8125v-15h-5.8125zm54.601563-153.585937c0-14.125 11.488281-25.617188 25.613281-25.617188s25.617187 11.492188 25.617187 25.617188v24.625l-16.402344 16.402343h-34.828124zm0 0"/></svg>