<svg height="512pt" viewBox="0 -1 512 512" width="512pt" xmlns="http://www.w3.org/2000/svg"><path d="m394.707031 221.394531v275.039063c0 7.433594-6.019531 13.464844-13.472656 13.464844h-367.769531c-7.433594 0-13.464844-6.03125-13.464844-13.464844v-275.039063c0-7.441406 6.03125-13.464843 13.464844-13.464843h367.769531c7.453125 0 13.472656 6.023437 13.472656 13.464843zm0 0" fill="#fff5cc"/><path d="m394.707031 221.394531v275.039063c0 7.433594-6.019531 13.464844-13.472656 13.464844h-183.886719v-301.96875h183.886719c7.453125 0 13.472656 6.023437 13.472656 13.464843zm0 0" fill="#ffeb99"/><path d="m184.03125 350.28125v86.335938h-161.230469v-86.335938c0-32.195312 20.328125-59.640625 48.835938-70.226562-15.992188-10.410157-26.574219-28.425782-26.574219-48.921876 0-32.238281 26.128906-58.367187 58.355469-58.367187 32.222656 0 58.351562 26.128906 58.351562 58.367187 0 20.496094-10.582031 38.511719-26.574219 48.921876 28.507813 10.585937 48.835938 38.03125 48.835938 70.226562zm0 0" fill="#ff6379"/><path d="m184.03125 350.28125v86.335938h-80.613281v-263.851563c32.222656 0 58.351562 26.128906 58.351562 58.367187 0 20.496094-10.582031 38.511719-26.574219 48.921876 28.507813 10.585937 48.835938 38.03125 48.835938 70.226562zm0 0" fill="#ff415b"/><path d="m512 158.988281v57.566407c0 8.523437-6.917969 15.4375-15.441406 15.4375h-158.757813c-1.265625 0-2.488281.464843-3.425781 1.308593l-32.488281 28.980469c-3.324219 2.964844-8.574219.605469-8.574219-3.839844v-99.453125c0-8.53125 6.90625-15.441406 15.441406-15.441406h187.804688c8.523437 0 15.441406 6.90625 15.441406 15.441406zm0 0" fill="#ff6379"/><path d="m512 158.988281v57.566407c0 8.523437-6.917969 15.4375-15.441406 15.4375h-95.054688v-88.445313h95.054688c8.523437 0 15.441406 6.90625 15.441406 15.441406zm0 0" fill="#ff415b"/><path d="m424.109375 185.996094c0 8.53125-6.917969 15.441406-15.441406 15.441406h-68.097657c-8.53125 0-15.441406-6.910156-15.441406-15.441406 0-8.523438 6.910156-15.441406 15.441406-15.441406h68.097657c8.523437 0 15.441406 6.917968 15.441406 15.441406zm0 0" fill="#fff5cc"/><path d="m424.109375 185.996094c0 8.53125-6.917969 15.441406-15.441406 15.441406h-7.164063v-30.882812h7.164063c8.523437 0 15.441406 6.917968 15.441406 15.441406zm0 0" fill="#ffeb99"/><path d="m468.632812 170.554688h-19.820312c-8.527344 0-15.441406 6.914062-15.441406 15.441406s6.914062 15.441406 15.441406 15.441406h19.820312c8.527344 0 15.441407-6.914062 15.441407-15.441406s-6.914063-15.441406-15.441407-15.441406zm0 0" fill="#ffeb99"/><path d="m463.660156 15.441406v67.808594c0 8.523438-6.917968 15.441406-15.441406 15.441406h-179.160156c-1.265625 0-2.480469.460938-3.429688 1.304688l-37.40625 33.375c-3.316406 2.964844-8.578125.605468-8.578125-3.839844v-114.089844c0-8.535156 6.917969-15.441406 15.441407-15.441406h213.132812c8.523438 0 15.441406 6.90625 15.441406 15.441406zm0 0" fill="#5ecef4"/><path d="m463.660156 15.441406v67.808594c0 8.523438-6.917968 15.441406-15.441406 15.441406h-106.566406v-98.691406h106.566406c8.523438 0 15.441406 6.90625 15.441406 15.441406zm0 0" fill="#0fa9dd"/><path d="m294.496094 32.472656h-22.113282c-8.53125 0-15.441406 6.910156-15.441406 15.4375 0 8.53125 6.910156 15.441406 15.441406 15.441406h22.113282c8.527344 0 15.441406-6.910156 15.441406-15.441406 0-8.527344-6.914062-15.4375-15.441406-15.4375zm0 0" fill="#fff5cc"/><path d="m430.71875 47.910156c0 8.53125-6.917969 15.441406-15.441406 15.441406h-75.980469c-8.535156 0-15.441406-6.910156-15.441406-15.441406 0-8.523437 6.90625-15.441406 15.441406-15.441406h75.980469c8.523437 0 15.441406 6.917969 15.441406 15.441406zm0 0" fill="#fff5cc"/><path d="m430.71875 47.910156c0 8.53125-6.917969 15.441406-15.441406 15.441406h-73.625v-30.882812h73.625c8.523437 0 15.441406 6.917969 15.441406 15.441406zm0 0" fill="#ffeb99"/><path d="m159.457031 15.441406v114.933594c0 4.304688-4.972656 6.703125-8.347656 4.023438l-39.347656-31.1875c-.902344-.722657-2.027344-1.113282-3.1875-1.113282h-85.09375c-8.535157 0-15.441407-6.917968-15.441407-15.441406v-71.214844c0-8.535156 6.90625-15.441406 15.441407-15.441406h120.535156c8.523437 0 15.441406 6.90625 15.441406 15.441406zm0 0" fill="#ff6379"/><path d="m159.457031 15.441406v114.933594c0 4.304688-4.972656 6.703125-8.347656 4.023438l-39.347656-31.1875c-.902344-.722657-2.027344-1.113282-3.1875-1.113282h-24.832031v-102.097656h60.273437c8.523437 0 15.441406 6.90625 15.441406 15.441406zm0 0" fill="#ff415b"/><path d="m120.339844 47.910156c0 8.53125-6.910156 15.441406-15.441406 15.441406h-45.65625c-8.523438 0-15.441407-6.910156-15.441407-15.441406 0-8.523437 6.917969-15.441406 15.441407-15.441406h45.65625c8.53125 0 15.441406 6.917969 15.441406 15.441406zm0 0" fill="#fff5cc"/><path d="m120.339844 47.910156c0 8.53125-6.910156 15.441406-15.441406 15.441406h-21.15625v-30.882812h21.15625c8.53125 0 15.441406 6.917969 15.441406 15.441406zm0 0" fill="#ffeb99"/><path d="m290.835938 326.90625h65.734374c8.390626 0 15.191407-6.800781 15.191407-15.1875 0-8.390625-6.800781-15.191406-15.191407-15.191406h-65.734374c-8.390626 0-15.191407 6.800781-15.191407 15.191406 0 8.386719 6.800781 15.1875 15.191407 15.1875zm0 0" fill="#0fa9dd"/><path d="m356.570312 349.984375h-93.492187c-8.386719 0-15.191406 6.800781-15.191406 15.191406 0 8.386719 6.804687 15.191407 15.191406 15.191407h93.492187c8.390626 0 15.191407-6.804688 15.191407-15.191407 0-8.390625-6.800781-15.191406-15.191407-15.191406zm0 0" fill="#0fa9dd"/><path d="m394.707031 427.144531v69.289063c0 7.433594-6.019531 13.464844-13.472656 13.464844h-367.769531c-7.433594 0-13.464844-6.03125-13.464844-13.464844v-69.289063zm0 0" fill="#2fc0f0"/><path d="m394.707031 427.144531v69.289063c0 7.433594-6.019531 13.464844-13.472656 13.464844h-183.886719v-82.753907zm0 0" fill="#0fa9dd"/><path d="m345.628906 452.851562h-37.429687c-8.65625 0-15.671875 7.019532-15.671875 15.671876 0 8.65625 7.015625 15.671874 15.671875 15.671874h37.429687c8.65625 0 15.671875-7.015624 15.671875-15.671874 0-8.652344-7.015625-15.671876-15.671875-15.671876zm0 0" fill="#ffeb99"/></svg>