<svg height="512pt" viewBox="0 -76 512 512" width="512pt" xmlns="http://www.w3.org/2000/svg"><path d="m224.789062 271.558594c-3.296874-19.359375-20.09375-33.523438-39.761718-33.523438h-8.144532c-3.519531 10.175782-13.191406 17.488282-24.578124 17.488282-11.390626 0-21.0625-7.3125-24.578126-17.488282h-8.148437c-19.664063 0-36.464844 14.164063-39.761719 33.523438l-17.882812 38.6875h181.210937zm0 0" fill="#ff8087"/><path d="m438.214844 0h-364.429688c-22.757812 0-41.207031 18.449219-41.207031 41.207031v271.082031h446.84375v-271.082031c0-22.757812-18.449219-41.207031-41.207031-41.207031zm0 0" fill="#8a7e88"/><path d="m470.792969 360.277344h-429.585938c-22.757812 0-41.207031-18.449219-41.207031-41.210938v-7.464844c0-5.691406 4.613281-10.300781 10.300781-10.300781h491.398438c5.6875 0 10.300781 4.609375 10.300781 10.300781v7.464844c0 22.761719-18.449219 41.210938-41.207031 41.210938zm0 0" fill="#8a7e88"/><path d="m464.660156 301.300781v17.765625c0 22.757813-18.449218 41.207032-41.207031 41.207032h47.339844c22.757812 0 41.207031-18.449219 41.207031-41.207032v-7.464844c0-5.691406-4.613281-10.300781-10.300781-10.300781zm0 0" fill="#635562"/><path d="m438.214844 0h-62.921875c22.757812 0 41.207031 18.449219 41.207031 41.207031v260.09375h62.921875v-260.09375c0-22.757812-18.449219-41.207031-41.207031-41.207031zm0 0" fill="#635562"/><path d="m435.488281 37.714844h-358.976562c-5.691407 0-10.300781 4.613281-10.300781 10.300781v253.285156l81.894531-14.765625 90.363281 14.765625h207.320312v-253.285156c0-5.6875-4.613281-10.300781-10.300781-10.300781zm0 0" fill="#f1eff2"/><path d="m435.488281 37.714844h-19.097656v263.585937h29.398437v-253.285156c0-5.6875-4.613281-10.300781-10.300781-10.300781zm0 0" fill="#e0dee1"/><path d="m224.789062 271.558594c-3.296874-19.359375-20.09375-33.523438-39.761718-33.523438h-8.144532c-3.519531 10.175782-13.191406 17.488282-24.578124 17.488282-11.390626 0-21.0625-7.3125-24.578126-17.488282h-8.148437c-19.664063 0-36.464844 14.164063-39.761719 33.523438l-13.605468 29.742187h172.1875zm0 0" fill="#ff8087"/><path d="m224.789062 271.558594c-3.296874-19.359375-20.09375-33.523438-39.761718-33.523438h-8.144532c-.277343.800782-.601562 1.570313-.953124 2.332032 12.605468 4.480468 22.460937 15.0625 25.695312 28.507812.476562 1.96875 1.105469 3.894531 1.945312 5.734375l12.214844 26.691406h22.613282zm0 0" fill="#fd6470"/><path d="m318.601562 82.890625c-50.207031 0-90.910156 25.011719-90.910156 55.863281 0 8.5 3.09375 16.554688 8.621094 23.765625 5.03125 6.570313 4.214844 15.910157-1.660156 21.742188l-16.214844 16.089843 57.664062-12.207031c12.683594 4.132813 27.144532 6.472657 42.5 6.472657 50.207032 0 90.90625-25.007813 90.90625-55.863282 0-30.851562-40.703124-55.863281-90.90625-55.863281zm0 0" fill="#9de599"/><path d="m318.601562 82.890625c-5.007812 0-9.914062.253906-14.699218.730469 43.214844 4.320312 76.207031 27.355468 76.207031 55.132812 0 27.753906-32.933594 50.777344-76.097656 55.125 4.753906.46875 9.617187.738282 14.585937.738282 50.207032 0 90.910156-25.007813 90.910156-55.863282 0-30.851562-40.703124-55.863281-90.90625-55.863281zm0 0" fill="#74d4a2"/><path d="m103.089844 166.601562c-2.039063-2.453124-5.390625-8.949218-6.960938-31.882812-1.617187-23.617188 7.855469-34.179688 20.914063-42.769531 13.0625-8.589844 36.308593-17.207031 48.960937-9.023438 12.652344 8.179688 37.707032 1.410157 42.300782 42.769531 1.191406 10.730469-.542969 29.589844-6.175782 42.636719zm0 0" fill="#8a7e88"/><path d="m202.128906 168.332031c5.632813-13.046875 7.367188-31.90625 6.175782-42.636719-4.59375-41.359374-29.648438-34.589843-42.300782-42.769531-6.71875-4.347656-16.429687-3.953125-26.011718-1.34375.871093.386719 1.703124.832031 2.492187 1.34375 12.65625 8.179688 37.707031 1.410157 42.300781 42.769531.039063.320313.0625.671876.09375 1.011719zm0 0" fill="#635562"/><path d="m190.671875 127.515625c-15.511719-4.5-26.125 11.453125-57.554687 4.5-31.269532-6.917969-30.039063 34.167969-30.027344 34.578125 9.488281 23.640625 28.265625 45.203125 49.878906 45.203125 21.078125 0 39.453125-20.507813 49.152344-43.449219-.574219 1.066406 3.984375-36.355468-11.449219-40.832031zm0 0" fill="#ffe5c2"/><path d="m190.671875 127.515625c-4.78125-1.386719-9.09375-.828125-13.695313.398437 8.292969 3.457032 10.230469 17.152344 10.53125 27.65625.25 8.816407-1.898437 17.558594-6.394531 25.140626-8.84375 14.910156-21.359375 27.019531-35.523437 30.238281 2.414062.546875 4.875.847656 7.378906.847656 21.078125 0 39.453125-20.507813 49.152344-43.449219-.574219 1.066406 3.984375-36.355468-11.449219-40.832031zm0 0" fill="#ffd0a4"/><path d="m353.625 131.625h-65.679688c-4.265624 0-7.726562-3.457031-7.726562-7.726562 0-4.265626 3.460938-7.722657 7.726562-7.722657h65.679688c4.269531 0 7.726562 3.457031 7.726562 7.722657 0 4.269531-3.457031 7.726562-7.726562 7.726562zm0 0" fill="#635562"/><path d="m333.023438 156.953125h-45.078126c-4.265624 0-7.722656-3.460937-7.722656-7.726563 0-4.265624 3.457032-7.726562 7.722656-7.726562h45.078126c4.265624 0 7.726562 3.460938 7.726562 7.726562 0 4.265626-3.460938 7.726563-7.726562 7.726563zm0 0" fill="#635562"/><path d="m446.96875 339.996094h-102.515625c-4.265625 0-7.722656-3.457032-7.722656-7.726563 0-4.265625 3.457031-7.722656 7.722656-7.722656h102.515625c4.269531 0 7.726562 3.457031 7.726562 7.722656 0 4.269531-3.457031 7.726563-7.726562 7.726563zm0 0" fill="#ffe177"/></svg>