<?xml version="1.0" encoding="iso-8859-1"?>
<!-- Generator: Adobe Illustrator 19.0.0, SVG Export Plug-In . SVG Version: 6.00 Build 0)  -->
<svg version="1.1" id="Capa_1" xmlns="http://www.w3.org/2000/svg" xmlns:xlink="http://www.w3.org/1999/xlink" x="0px" y="0px"
	 viewBox="0 0 512 512" style="enable-background:new 0 0 512 512;" xml:space="preserve">
<path style="fill:#D9FFFE;" d="M512,226.431c0,46.358-37.143,84.181-83.231,85.33c-0.7,0.1-1.409,0.17-2.149,0.17H108.389
	C48.627,311.931,0,263.304,0,203.542C0,143.77,48.627,95.152,108.389,95.152c10.965,0,21.63,1.599,31.875,4.758
	c19.381-50.276,63.55-86.819,115.956-96.915c9.595-1.859,19.461-2.819,29.506-2.819c81.312,0,148.27,62.591,155.257,142.113
	C481.244,149.147,512,184.251,512,226.431z"/>
<path style="fill:#9BFCFF;" d="M512,226.431c0,46.358-37.143,84.181-83.231,85.33c-0.7,0.1-1.409,0.17-2.149,0.17h-170.4V2.996
	c9.595-1.859,19.461-2.819,29.506-2.819c81.312,0,148.27,62.591,155.257,142.113C481.244,149.147,512,184.251,512,226.431z"/>
<g>
	<path style="fill:#00A5FF;" d="M104.878,427.862c-8.28,0-14.993-6.713-14.993-14.993v-72.815c0-8.28,6.713-14.993,14.993-14.993
		s14.993,6.713,14.993,14.993v72.815C119.871,421.15,113.159,427.862,104.878,427.862z"/>
	<path style="fill:#00A5FF;" d="M256.22,325.594c-1.779-0.35-3.628-0.53-5.507-0.53h-14.553c-15.943,0-28.916,12.974-28.916,28.916
		v44.959c0,15.953,12.974,28.926,28.916,28.926h14.553c1.879,0,3.728-0.18,5.507-0.53c13.324-2.579,23.409-14.333,23.409-28.397
		v-44.959C279.629,339.918,269.544,328.173,256.22,325.594z M249.643,397.88h-12.414v-42.83h12.414V397.88z"/>
	<path style="fill:#00A5FF;" d="M163.47,427.862c-8.28,0-14.993-6.713-14.993-14.993v-72.815c0-8.28,6.713-14.993,14.993-14.993
		c8.28,0,14.993,6.713,14.993,14.993v72.815C178.463,421.15,171.75,427.862,163.47,427.862z"/>
</g>
<g>
	<path style="fill:#0088FF;" d="M398.643,511.823H384.09c-15.947,0-28.92-12.973-28.92-28.92v-44.959
		c0-15.947,12.974-28.921,28.92-28.921h14.553c15.948,0,28.921,12.974,28.921,28.921v44.959
		C427.564,498.849,414.59,511.823,398.643,511.823z M385.155,481.837h12.422v-42.829h-12.422V481.837z"/>
	<path style="fill:#0088FF;" d="M311.401,511.823c-8.28,0-14.993-6.713-14.993-14.993v-72.815c0-8.28,6.713-14.993,14.993-14.993
		s14.993,6.713,14.993,14.993v72.815C326.394,505.11,319.681,511.823,311.401,511.823z"/>
	<path style="fill:#0088FF;" d="M279.629,353.981v44.959c0,14.063-10.085,25.818-23.409,28.397V325.594
		C269.544,328.173,279.629,339.918,279.629,353.981z"/>
</g>
<g>
</g>
<g>
</g>
<g>
</g>
<g>
</g>
<g>
</g>
<g>
</g>
<g>
</g>
<g>
</g>
<g>
</g>
<g>
</g>
<g>
</g>
<g>
</g>
<g>
</g>
<g>
</g>
<g>
</g>
</svg>
