<?xml version="1.0" encoding="iso-8859-1"?>
<!-- Generator: Adobe Illustrator 19.0.0, SVG Export Plug-In . SVG Version: 6.00 Build 0)  -->
<svg version="1.1" id="Layer_1" xmlns="http://www.w3.org/2000/svg" xmlns:xlink="http://www.w3.org/1999/xlink" x="0px" y="0px"
	 viewBox="0 0 512 512" style="enable-background:new 0 0 512 512;" xml:space="preserve">
<path style="fill:#408BAF;" d="M505.751,6.248C501.75,2.247,496.323,0.001,490.665,0L21.332,0.03C9.55,0.028,0,9.582,0,21.363
	v469.303C0,502.45,9.552,512,21.333,512h469.333c11.782,0,21.333-9.55,21.333-21.333V21.333
	C512,15.677,509.753,10.249,505.751,6.248z"/>
<path style="fill:#387896;" d="M505.751,6.248C501.75,2.247,496.323,0.001,490.665,0L256,0.014V512h234.667
	c11.782,0,21.333-9.55,21.333-21.333V21.333C512,15.677,509.753,10.249,505.751,6.248z"/>
<path style="fill:#D1F4FF;" d="M185.034,336.213c-31.141,0-49.735-19.085-49.735-51.052v-58.507c0-31.378,19.275-50.87,50.301-50.87
	c32.528,0,49.546,21.221,49.546,42.186c0,16.442-11.816,18.216-16.895,18.216c-10.934,0-16.351-7.347-16.868-14.63
	c-0.006-0.085-0.011-0.172-0.016-0.259c-0.418-8.994-4.988-12.665-15.768-12.665c-10.458,0-16.511,2.948-16.511,18.022v58.507
	c0,13.444,4.518,18.212,17.267,18.212c13.35,0,14.003-5.222,15.083-13.872c1.084-8.658,7.681-14.252,16.812-14.252
	c5.079,0,16.895,1.793,16.895,18.406C235.146,314.805,217.931,336.213,185.034,336.213z"/>
<path style="fill:#A7E5FF;" d="M332.107,328.666c-9.264,0-16.519-7.09-16.519-16.141c0-0.539,0.04-1.077,0.122-1.609l3.6-23.583
	h-10.58l-4.437,28.355c-1.199,8.381-8.956,12.978-15.634,12.978c-9.262,0-16.516-7.09-16.516-16.141c0-0.519,0.037-1.04,0.114-1.556
	l3.483-23.636h-5.575c-8.805,0-15.198-6.471-15.198-15.386c0-8.734,6.343-15.572,14.44-15.572h11.577l1.33-8.863h-5.733
	c-8.805,0-15.196-6.551-15.196-15.576c0-8.626,6.343-15.383,14.441-15.383h11.649l4.049-25.543c0.034-0.22,0.077-0.441,0.125-0.657
	c1.469-6.578,7.69-11.17,15.128-11.17c9.525,0,16.707,6.939,16.707,16.141c0,0.563-0.044,1.126-0.134,1.684l-3.123,19.547h10.887
	l4.049-25.543c0.033-0.215,0.074-0.43,0.121-0.643c1.461-6.585,7.683-11.184,15.132-11.184c9.523,0,16.705,6.939,16.705,16.141
	c0,0.563-0.044,1.126-0.134,1.684l-3.123,19.547h5.992c8.337,0,15.381,7.044,15.381,15.383c0,8.589-6.562,15.576-14.629,15.576
	h-11.686l-1.441,8.863h5.955c8.34,0,15.387,7.131,15.387,15.572c0,8.484-6.564,15.386-14.63,15.386h-11.817l-4.447,28.534
	c-0.048,0.316-0.111,0.626-0.188,0.934C346.028,323.676,339.455,328.666,332.107,328.666z M313.765,256.375h10.721l1.385-8.863
	h-10.722L313.765,256.375z"/>
<g>
</g>
<g>
</g>
<g>
</g>
<g>
</g>
<g>
</g>
<g>
</g>
<g>
</g>
<g>
</g>
<g>
</g>
<g>
</g>
<g>
</g>
<g>
</g>
<g>
</g>
<g>
</g>
<g>
</g>
</svg>
