<svg height="512pt" viewBox="0 0 512 512" width="512pt" xmlns="http://www.w3.org/2000/svg"><path d="m346.277344 346.277344c-5.859375 5.859375-5.859375 15.355468 0 21.210937l17.1875 17.191407c5.859375 5.855468 15.355468 5.855468 21.214844 0 5.855468-5.859376 5.855468-15.355469 0-21.214844l-17.191407-17.1875c-5.855469-5.859375-15.351562-5.859375-21.210937 0zm0 0" fill="#fd1f47"/><path d="m367.496094 346.277344 17.183594 17.183594c5.859374 5.859374 5.851562 15.355468 0 21.210937l-38.398438-38.394531c5.855469-5.855469 15.351562-5.863282 21.214844 0zm0 0" fill="#fe4a60"/><path d="m371.96875 371.96875c-19.167969 19.167969-19.167969 50.242188 0 69.414062l56.242188 56.242188c19.167968 19.167969 50.242187 19.167969 69.410156 0 19.167968-19.167969 19.167968-50.246094 0-69.414062l-56.242188-56.242188c-19.164062-19.167969-50.242187-19.167969-69.410156 0zm0 0" fill="#fe4a60"/><path d="m441.382812 371.964844 56.242188 56.246094c19.167969 19.167968 19.160156 50.246093 0 69.40625l-125.652344-125.652344c3.695313-3.695313 7.839844-6.679688 12.257813-8.949219 18.464843-9.496094 41.679687-6.519531 57.152343 8.949219zm0 0" fill="#ff7579"/><path d="m154.550781 154.550781c-56.027343 56.027344-56.027343 146.863281 0 202.890625 56.027344 56.027344 146.863281 56.027344 202.890625 0s56.027344-146.863281 0-202.890625c-56.027344-56.027343-146.863281-56.027343-202.890625 0zm0 0" fill="#ffb826"/><path d="m154.550781 154.546875 202.894531 202.894531c3.578126-3.578125 6.9375-7.300781 10.058594-11.15625 45.734375-56.34375 42.375-139.292968-10.0625-191.730468-56.027344-56.027344-146.867187-56.03125-202.890625-.007813zm0 0" fill="#ffcc4b"/><path d="m336.234375 175.753906c-44.316406-44.316406-116.167969-44.316406-160.484375 0s-44.316406 116.167969 0 160.484375c44.316406 44.316407 116.167969 44.316407 160.484375 0 44.316406-44.316406 44.316406-116.167969 0-160.484375zm0 0" fill="#d9e4ef"/><path d="m63.414062 76.277344c-35.316406.457031-63.414062 29.902344-63.414062 65.222656v2.03125c0 8.285156 6.714844 15 15 15h98.535156c8.285156 0 15-6.714844 15-15v-2.992188c0-35.777343-29.234375-64.726562-65.121094-64.261718zm0 0" fill="#ff7579"/><path d="m101.339844 38.140625c0 21.0625-17.074219 38.136719-38.136719 38.136719-21.066406 0-38.140625-17.074219-38.140625-38.136719 0-21.066406 17.074219-38.140625 38.140625-38.140625 21.0625 0 38.136719 17.074219 38.136719 38.140625zm0 0" fill="#ffcfbe"/><path d="m101.339844 38.140625c0 21.0625-17.074219 38.132813-38.140625 38.132813v-76.273438c21.0625 0 38.140625 17.078125 38.140625 38.140625zm0 0" fill="#f9bcaa"/><path d="m63.414062 76.277344c-.070312 0-.140624.007812-.214843.007812v82.246094h50.335937c8.285156 0 15-6.714844 15-15v-2.992188c0-35.777343-29.234375-64.726562-65.121094-64.261718zm0 0" fill="#fe4a60"/><path d="m63.414062 429.746094c-35.316406.457031-63.414062 29.898437-63.414062 65.21875v2.035156c0 8.285156 6.714844 15 15 15h98.535156c8.285156 0 15-6.714844 15-15v-2.992188c0-35.777343-29.234375-64.730468-65.121094-64.261718zm0 0" fill="#ff7579"/><path d="m101.339844 391.605469c0 21.0625-17.074219 38.140625-38.136719 38.140625-21.066406 0-38.140625-17.078125-38.140625-38.140625s17.074219-38.136719 38.140625-38.136719c21.0625 0 38.136719 17.074219 38.136719 38.136719zm0 0" fill="#f9bcaa"/><path d="m101.339844 391.605469c0 21.066406-17.074219 38.136719-38.140625 38.136719v-76.277344c21.0625.003906 38.140625 17.078125 38.140625 38.140625zm0 0" fill="#f4ab97"/><path d="m63.414062 429.746094c-.070312 0-.140624.007812-.214843.007812v82.246094h50.335937c8.285156 0 15-6.714844 15-15v-2.992188c0-35.777343-29.234375-64.730468-65.121094-64.261718zm0 0" fill="#fe4a60"/><path d="m446.878906 76.277344c-35.320312.457031-63.414062 29.902344-63.414062 65.222656v2.03125c0 8.285156 6.714844 15 15 15h98.535156c8.285156 0 15-6.714844 15-15v-2.992188c0-35.777343-29.234375-64.726562-65.121094-64.261718zm0 0" fill="#ff7579"/><path d="m484.804688 38.140625c0 21.0625-17.074219 38.136719-38.140626 38.136719-21.0625 0-38.136718-17.074219-38.136718-38.136719 0-21.066406 17.074218-38.140625 38.136718-38.140625 21.066407 0 38.140626 17.074219 38.140626 38.140625zm0 0" fill="#f4ab97"/><path d="m484.804688 38.140625c0 21.0625-17.078126 38.132813-38.140626 38.132813v-76.273438c21.0625 0 38.140626 17.078125 38.140626 38.140625zm0 0" fill="#e79a85"/><path d="m446.878906 76.277344c-.074218 0-.144531.007812-.214844.007812v82.246094h50.335938c8.285156 0 15-6.714844 15-15v-2.992188c0-35.777343-29.234375-64.726562-65.121094-64.261718zm0 0" fill="#fe4a60"/><path d="m336.238281 336.238281-83.109375-83.109375-.238281-.25-77.128906-77.128906c44.308593-44.308594 116.167969-44.308594 160.476562 0 44.320313 44.320312 44.320313 116.171875 0 160.488281zm0 0" fill="#eff6fe"/><path d="m294.140625 214.871094c0 21.066406-17.074219 38.140625-38.136719 38.140625-21.066406 0-38.140625-17.074219-38.140625-38.140625 0-21.0625 17.074219-38.136719 38.140625-38.136719 21.0625 0 38.136719 17.074219 38.136719 38.136719zm0 0" fill="#f9bcaa"/><path d="m256.214844 253.011719c-35.316406.457031-63.414063 29.898437-63.414063 65.21875v2.035156c0 8.285156 6.714844 15 15 15h98.535157c8.285156 0 15-6.714844 15-15v-2.992187c0-35.777344-29.234376-64.726563-65.121094-64.261719zm0 0" fill="#1d9cfd"/><path d="m294.140625 214.871094c0 20.71875-16.511719 37.570312-37.089844 38.128906-.351562.011719-.699219.011719-1.050781.011719-1.050781 0-2.089844-.042969-3.109375-.132813l-34.902344-34.898437c-.089843-1.019531-.128906-2.058594-.128906-3.109375 0-21.0625 17.082031-38.140625 38.140625-38.140625 21.070312 0 38.140625 17.078125 38.140625 38.140625zm0 0" fill="#ffcfbe"/><path d="m321.339844 317.269531v3c0 .351563-.011719.691407-.039063 1.03125l-68.171875-68.171875c.949219-.058594 1.910156-.097656 2.871094-.117187.351562 0 .699219 0 1.050781-.011719 35.507813 0 64.289063 28.78125 64.289063 64.269531zm0 0" fill="#3ab4fb"/></svg>