<svg height="464pt" viewBox="0 -48 464 464" width="464pt" xmlns="http://www.w3.org/2000/svg"><path d="m0 240h464v128h-464zm0 0" fill="#d1d3d4"/><path d="m188 155.121094c-10.59375-7.277344-23.148438-11.15625-36-11.121094h-64c-35.347656 0-64 28.652344-64 64v64c.023438 23.402344 16.921875 43.378906 40 47.28125h112c4.148438-.664062 8.1875-1.902344 12-3.671875 17.042969-7.828125 27.976562-24.855469 28-43.609375v-64c.003906-21.175781-10.480469-40.980469-28-52.878906zm0 0" fill="#7ed63e"/><path d="m412 123.121094c-10.59375-7.277344-23.148438-11.15625-36-11.121094h-64c-35.347656 0-64 28.652344-64 64v64h192v-64c.003906-21.175781-10.480469-40.980469-28-52.878906zm0 0" fill="#d80027"/><path d="m384 40c0 22.089844-17.910156 40-40 40s-40-17.910156-40-40 17.910156-40 40-40 40 17.910156 40 40zm0 0" fill="#d80027"/><path d="m160 72c0 22.089844-17.910156 40-40 40s-40-17.910156-40-40 17.910156-40 40-40 40 17.910156 40 40zm0 0" fill="#7ed63e"/><path d="m64 184h112v184h-112zm0 0" fill="#2488ff"/><path d="m304 168v72h-16v-56c0-8.835938 7.164062-16 16-16zm0 0" fill="#c20023"/><path d="m384 168c8.835938 0 16 7.164062 16 16v56h-16zm0 0" fill="#c20023"/><g fill="#a7a9ac"><path d="m216 240h248v16h-248zm0 0"/><path d="m0 240h24v16h-24zm0 0"/></g></svg>