<svg version="1.1" xmlns="http://www.w3.org/2000/svg" xmlns:xlink="http://www.w3.org/1999/xlink" viewBox="0 0 82 82" width="82px" height="82px">
    <g id="svg-job" fill="none" fill-rule="evenodd">
        <g transform="translate(-836 -168)">
            <g transform="translate(838 170)">
                <polygon points="56.897 79.031 0.36265 78.695 0.81561 2.3138 57.35 2.6485" fill="#fff" />
                <polygon points="56.894 77.08 0.36 76.744 0.81296 0.36258 57.347 0.69731" stroke="#7D7D7D" stroke-linecap="round" stroke-linejoin="round" stroke-width="3" />
                <path d="m27.591 67.574l-17.462-0.13318 17.462 0.13318z" fill="#F2F2F2" />
                <path d="m10.129 67.44l17.463 0.13318" stroke="#B2B2B2" stroke-linecap="round" stroke-linejoin="round" stroke-width="1.9396" />
                <path d="m48.459 26.08l-37.215-0.22078 37.215 0.22078z" fill="#F2F2F2" />
                <path d="m11.244 25.86l37.215 0.22078" stroke="#B2B2B2" stroke-linecap="round" stroke-linejoin="round" stroke-width="1.9396" />
                <path d="m48.397 36.477l-37.216-0.22078 37.216 0.22078z" fill="#F2F2F2" />
                <path d="m11.182 36.256l37.216 0.22078" stroke="#B2B2B2" stroke-linecap="round" stroke-linejoin="round" stroke-width="1.9396" />
                <path d="m48.128 57.269l-37.425-0.22149 37.425 0.22149z" fill="#F2F2F2" />
                <path d="m10.702 57.047l37.426 0.2222" stroke="#B2B2B2" stroke-linecap="round" stroke-linejoin="round" stroke-width="1.9396" />
                <path d="m48.19 46.873l-37.427-0.2222 37.427 0.2222z" fill="#F2F2F2" />
                <path d="m10.763 46.65l37.427 0.2222" stroke="#B2B2B2" stroke-linecap="round" stroke-linejoin="round" stroke-width="1.9396" />
                <text fill="#14BFF4" font-family="GothamSSm-Bold, Gotham SSm" font-size="8" font-weight="bold">
                    <tspan x="7.80487805" y="14.6455887">JOB POST</tspan>
                </text>
                <g transform="translate(27.398 28.115)">
                    <path d="m50.543 7.0238c0.4636-0.34399 0.44918-0.95434 0.17448-1.3147l-4.0512-5.3187c-0.2747-0.36108-0.71017-0.34114-1.1738 0.0028488l-5.3151 3.9498 5.0512 6.6305 5.3144-3.9498z" fill="#ABF0FF" />
                    <polygon points="38.517 6.3196 40.943 4.5163 45.633 10.673 43.207 12.477" fill="#F9F9F9" />
                    <polygon points="40.681 9.1615 8.735 32.905 6.2094 29.589 38.156 5.8462" fill="#6FDA44" />
                    <polygon points="43.207 12.477 11.26 36.22 8.735 32.904 40.681 9.1613" fill="#B0E44F" />
                    <path d="m38.517 6.3196l4.69 6.1569" stroke="#7D7D7D" stroke-linecap="round" stroke-linejoin="round" stroke-width="1.7914" />
                    <path d="m40.943 4.5162l4.69 6.1576" stroke="#7D7D7D" stroke-linecap="round" stroke-linejoin="round" stroke-width="1.7914" />
                    <polygon points="1.5712 38.248 5.1069 37.576 3.1415 35.047" fill="#7D7D7D" />
                    <polyline points="11.112 36.251 0.53468 38.881 5.919 29.434 7.6465 28.15" stroke="#7D7D7D" stroke-linecap="round" stroke-linejoin="round" stroke-width="2.19" />
                    <path d="m6.9265 30.945l-1.0988-1.4429 39.485-29.346c0.4636-0.34399 1.0786 0.28773 1.3612 0.65807l4.1644 5.4689c0.28263 0.37034 0.12978 0.34541-0.33382 0.6894l-39.485 29.346-4.093-5.3735z" stroke="#7D7D7D" stroke-linecap="round" stroke-linejoin="round" stroke-width="2.19" />
                </g>
            </g>
        </g>
    </g>
</svg>