<?xml version="1.0" encoding="iso-8859-1"?>
<!-- Generator: Adobe Illustrator 21.0.0, SVG Export Plug-In . SVG Version: 6.00 Build 0)  -->
<svg xmlns="http://www.w3.org/2000/svg" xmlns:xlink="http://www.w3.org/1999/xlink" version="1.1" id="Capa_1" x="0px" y="0px" viewBox="0 0 512 512" style="enable-background:new 0 0 512 512;" xml:space="preserve" width="512" height="512">
<g>
	<path style="fill:#47568C;" d="M271,19.799V77c0,8.399-6.599,15-15,15s-15-6.601-15-15V19.799H271z"/>
	<path style="fill:#2C3B73;" d="M271,19.799V77c0,8.399-6.599,15-15,15V19.799H271z"/>
	<path style="fill:#D8D8FC;" d="M331,15c0,8.399-6.599,15-15,15H196c-8.401,0-15-6.601-15-15c0-8.401,6.599-15,15-15h120   C324.401,0,331,6.599,331,15z"/>
	<path style="fill:#A3A3D1;" d="M331,15c0,8.399-6.599,15-15,15h-60V0h60C324.401,0,331,6.599,331,15z"/>
	<path style="fill:#D8D8FC;" d="M99.027,36.395c-5.859-5.859-15.352-5.859-21.211,0L35.395,78.816   c-5.859,5.859-5.859,15.352,0,21.211l60.656,60.676l69.434-57.876L99.027,36.395z"/>
	<path style="fill:#A3A3D1;" d="M476.605,78.816l-42.422-42.422c-5.859-5.859-15.352-5.859-21.211,0l-69.269,69.245l74.434,52.874   l58.467-58.486C482.465,94.168,482.465,84.676,476.605,78.816z"/>
	<path style="fill:#979FEF;" d="M256,512C131.8,512,31,411.2,31,287l124.799-57.301h206.102C361.901,229.699,380.2,512,256,512z"/>
	<path style="fill:#EEBF00;" d="M481,287c0,124.2-100.8,225-225,225V229.699h105.901L481,287z"/>
	<path style="fill:#9BFCFF;" d="M256,287H31c0-62.1,25.2-118.35,65.925-159.075S193.9,62,256,62S256,287,256,287z"/>
	<path style="fill:#E63950;" d="M481,287H256V62C380.2,62,481,162.8,481,287z"/>
	<path style="fill:#61729B;" d="M256,122c-90.901,0-165,74.099-165,165c0,90.899,74.099,165,165,165s165-74.101,165-165   C421,196.099,346.901,122,256,122z"/>
	<path style="fill:#47568C;" d="M421,287c0,90.899-74.099,165-165,165V122C346.901,122,421,196.099,421,287z"/>
	<path style="fill:#F2F2FC;" d="M391,287c0,74.399-60.601,135-135,135s-135-60.601-135-135c0-74.401,60.601-135,135-135   S391,212.599,391,287z"/>
	<path style="fill:#D8D8FC;" d="M391,287c0,74.399-60.601,135-135,135V152C330.399,152,391,212.599,391,287z"/>
	<path style="fill:#61729B;" d="M301,317c0,19.499-12.599,36-30,42.299V377c0,8.399-6.599,15-15,15s-15-6.601-15-15v-17.701   c-17.401-6.299-30-22.8-30-42.299c0-8.401,6.599-15,15-15s15,6.599,15,15c0,8.399,6.599,15,15,15s15-6.601,15-15   c0-8.401-6.599-15-15-15c-24.901,0-45-20.101-45-45c0-19.501,12.599-36,30-42.301V197c0-8.401,6.599-15,15-15s15,6.599,15,15   v17.699c17.401,6.301,30,22.8,30,42.301c0,8.399-6.599,15-15,15s-15-6.601-15-15c0-8.401-6.599-15-15-15s-15,6.599-15,15   c0,8.399,6.599,15,15,15C280.901,272,301,292.099,301,317z"/>
	<path style="fill:#47568C;" d="M301,317c0,19.499-12.599,36-30,42.299V377c0,8.399-6.599,15-15,15v-60c8.401,0,15-6.601,15-15   c0-8.401-6.599-15-15-15v-30C280.901,272,301,292.099,301,317z"/>
	<path style="fill:#47568C;" d="M301,257c0,8.399-6.599,15-15,15s-15-6.601-15-15c0-8.401-6.599-15-15-15v-60   c8.401,0,15,6.599,15,15v17.699C288.401,221,301,237.499,301,257z"/>
</g>















</svg>
