<svg height="512pt" viewBox="0 -32 512 512" width="512pt" xmlns="http://www.w3.org/2000/svg"><path d="m256 368.46875c-8.285156 0-15 6.71875-15 15v34.269531c0 8.28125 6.714844 15 15 15s15-6.71875 15-15v-34.269531c0-8.28125-6.714844-15-15-15zm0 0" fill="#d9e4ef"/><path d="m271 383.46875v34.269531c0 8.28125-6.71875 15-15 15v-64.269531c8.28125 0 15 6.722656 15 15zm0 0" fill="#c1cedb"/><path d="m464.867188.00390625h-417.734376c-25.820312 0-47.132812 20.86718775-47.132812 47.13281275v289.199219c0 26.351562 21.402344 47.132812 47.132812 47.132812h417.734376c25.820312 0 47.132812-20.867188 47.132812-47.132812v-289.199219c0-26.351563-21.402344-47.13281275-47.132812-47.13281275zm0 0" fill="#eff6fe"/><path d="m464.871094 0h-208.871094v383.46875h208.871094c25.820312 0 47.128906-20.867188 47.128906-47.128906v-289.199219c0-26.359375-21.398438-47.140625-47.128906-47.140625zm0 0" fill="#d9e4ef"/><path d="m336.332031 417.738281h-160.664062c-8.285157 0-15 6.714844-15 15 0 8.28125 6.714843 15 15 15h160.664062c8.285157 0 15-6.71875 15-15 0-8.285156-6.714843-15-15-15zm0 0" fill="#eff6fe"/><path d="m0 319.203125v17.132813c0 26.351562 21.402344 47.132812 47.132812 47.132812h417.734376c25.820312 0 47.132812-20.867188 47.132812-47.132812v-17.132813zm0 0" fill="#3ab4fb"/><path d="m351.328125 432.738281c0 8.28125-6.707031 15-15 15h-80.328125v-30h80.328125c8.292969 0 15 6.710938 15 15zm0 0" fill="#d9e4ef"/><path d="m512 319.199219v17.140625c0 26.261718-21.308594 47.128906-47.128906 47.128906h-208.871094v-64.269531zm0 0" fill="#1d9cfd"/><path d="m198.160156 151.03125c0 30.171875-24.457031 54.628906-54.628906 54.628906-30.167969 0-54.628906-24.457031-54.628906-54.628906s24.460937-54.628906 54.628906-54.628906c30.171875 0 54.628906 24.457031 54.628906 54.628906zm0 0" fill="#ffcfbe"/><path d="m142.375 205.667969c-47.921875.621093-86.042969 40.570312-86.042969 88.496093v4.339844c0 11.429688 9.265625 20.695313 20.695313 20.695313h133.011718c11.429688 0 20.695313-9.265625 20.695313-20.695313v-5.640625c0-48.546875-39.667969-87.828125-88.359375-87.195312zm0 0" fill="#ff7579"/><path d="m278.648438 236.351562 44.421874-29.617187h85.5625c30.421876 0 55.167969-24.746094 55.167969-55.164063v-48.199218c0-30.46875-24.648437-55.167969-55.167969-55.167969h-98.136718c-30.46875 0-55.167969 24.648437-55.167969 55.167969v120.5c0 11.953125 13.363281 19.121094 23.320313 12.480468zm0 0" fill="#1d9cfd"/><g fill="#d9e4ef"><path d="m326.363281 127.46875c0 8.285156-6.714843 15-15 15-8.285156 0-15-6.714844-15-15 0-8.28125 6.714844-15 15-15 8.285157 0 15 6.71875 15 15zm0 0"/><path d="m374.5625 127.46875c0 8.285156-6.714844 15-15 15-8.28125 0-15-6.714844-15-15 0-8.28125 6.71875-15 15-15 8.285156 0 15 6.71875 15 15zm0 0"/><path d="m422.765625 127.46875c0 8.285156-6.71875 15-15 15-8.285156 0-15-6.714844-15-15 0-8.28125 6.714844-15 15-15 8.28125 0 15 6.71875 15 15zm0 0"/></g></svg>