<?xml version="1.0" encoding="iso-8859-1"?>
<!-- Generator: Adobe Illustrator 21.0.0, SVG Export Plug-In . SVG Version: 6.00 Build 0)  -->
<svg xmlns="http://www.w3.org/2000/svg" xmlns:xlink="http://www.w3.org/1999/xlink" version="1.1" id="Capa_1" x="0px" y="0px" viewBox="0 0 512 512" style="enable-background:new 0 0 512 512;" xml:space="preserve" width="512" height="512">
<g>
	<path style="fill:#979FEF;" d="M331.504,256c0-41.4-33.6-75-75-75h-15v-16.3c18.6-14.101,30-36.301,30-59.7V78.3   c0-38.401-27.001-71.4-62.401-77.401C204.905,0.3,200.705,0,196.504,0c-41.4,0.3-75,33.6-75,75v30c0,23.399,11.4,45.599,30,59.7   V181h-15c-41.4,0-75,33.6-75,75v90c0,8.399,6.599,15,15,15h240c8.401,0,15-6.601,15-15V256z"/>
	<path style="fill:#737EE6;" d="M256.504,181c41.4,0,75,33.6,75,75v90c0,8.399-6.599,15-15,15h-120V0c4.2,0,8.401,0.3,12.599,0.899   c35.4,6,62.401,39,62.401,77.401V105c0,23.399-11.4,45.599-30,59.7V181H256.504z"/>
	<path style="fill:#D8D8FC;" d="M442.805,397l-21.601-12.601c0.423-3.805,0.414-13.072,0-16.8L442.805,355   c7.2-4.2,9.899-13.2,5.7-20.4l-30-52.2c-2.1-3.301-5.402-5.7-9.3-6.901c-3.602-0.899-7.8-0.599-11.4,1.501l-21.901,12.9   c-4.799-3.301-9.3-6-14.399-8.401V256c0-8.401-6.599-15-15-15h-60c-8.401,0-15,6.599-15,15v25.499   c-5.099,2.401-9.6,5.099-14.399,8.401L235.204,277c-3.6-2.1-7.798-2.401-11.4-1.501c-3.898,1.201-7.2,3.6-9.3,6.901l-30,52.2   c-4.199,7.2-1.5,16.199,5.7,20.4l21.601,12.599c-0.414,3.728-0.423,12.995,0,16.8L190.204,397c-7.2,4.199-9.899,13.2-5.7,20.4   l30,52.2c2.1,3.3,5.402,5.7,9.3,6.899c3.602,0.901,7.8,0.3,11.4-1.5l21.901-12.9c4.799,3.3,9.3,6,14.399,8.399V497   c0,8.399,6.599,15,15,15h60c8.401,0,15-6.601,15-15v-26.501c5.099-2.399,9.6-5.099,14.399-8.399l21.901,12.9   c3.6,1.8,7.798,2.401,11.4,1.5c3.898-1.199,7.2-3.6,9.3-6.899l30-52.2C452.704,410.2,450.005,401.199,442.805,397z M316.504,421   c-24.901,0-45-20.101-45-45c0-24.901,20.099-45,45-45s45,20.099,45,45C361.504,400.899,341.405,421,316.504,421z"/>
	<path style="fill:#A3A3D1;" d="M448.505,417.4l-30,52.2c-2.1,3.3-5.402,5.7-9.3,6.899c-3.602,0.901-7.8,0.3-11.4-1.5l-21.901-12.9   c-4.799,3.3-9.3,6-14.399,8.399V497c0,8.399-6.599,15-15,15h-30v-91c24.901,0,45-20.101,45-45c0-24.901-20.099-45-45-45v-90h30   c8.401,0,15,6.599,15,15v25.499c5.099,2.401,9.6,5.099,14.399,8.401l21.901-12.9c3.6-2.1,7.798-2.401,11.4-1.501   c3.898,1.201,7.2,3.6,9.3,6.901l30,52.2c4.199,7.2,1.5,16.199-5.7,20.4l-21.601,12.599c0.414,3.728,0.423,12.995,0,16.8   L442.805,397C450.005,401.199,452.704,410.2,448.505,417.4z"/>
</g>















</svg>
